<svg width="22" height="22" viewBox="0 0 22 22" fill="none" xmlns="http://www.w3.org/2000/svg">
<path opacity="0.18" d="M11 22C17.0751 22 22 17.0751 22 11C22 4.92487 17.0751 0 11 0C4.92487 0 0 4.92487 0 11C0 17.0751 4.92487 22 11 22Z" fill="black"/>
<path d="M10.992 17H5.234C5.06811 17.0144 4.90107 16.9923 4.74466 16.9352C4.58824 16.878 4.44626 16.7873 4.3287 16.6694C4.21115 16.5514 4.12088 16.4092 4.06426 16.2526C4.00764 16.096 3.98605 15.9288 4.001 15.763C4.001 13.557 4.001 11.351 4.001 9.145C3.98923 8.98362 4.01251 8.82161 4.06923 8.67007C4.12595 8.51853 4.21478 8.38105 4.32963 8.26706C4.44447 8.15307 4.58261 8.06527 4.73457 8.00968C4.88653 7.95409 5.04871 7.93203 5.21 7.94501C5.9 7.94501 6.591 7.94501 7.281 7.94501C7.33761 7.94691 7.39392 7.93613 7.44583 7.91347C7.49773 7.8908 7.54392 7.85681 7.581 7.814C7.987 7.394 8.398 6.98 8.808 6.565C8.91082 6.45639 9.03492 6.37014 9.17257 6.31164C9.31022 6.25314 9.45845 6.22365 9.608 6.22501C10.551 6.22501 11.494 6.22501 12.437 6.22501C12.6004 6.22812 12.7614 6.2653 12.9097 6.33417C13.058 6.40305 13.1902 6.5021 13.298 6.625C13.698 7.025 14.098 7.425 14.491 7.837C14.5258 7.87556 14.5689 7.90575 14.6171 7.92531C14.6652 7.94488 14.7171 7.95332 14.769 7.95C15.454 7.95 16.138 7.95 16.823 7.95C16.9798 7.94044 17.1369 7.96398 17.2841 8.0191C17.4312 8.07422 17.5651 8.15969 17.6771 8.26994C17.789 8.38019 17.8765 8.51277 17.9339 8.65905C17.9912 8.80533 18.0172 8.96204 18.01 9.119C18.01 11.3477 18.01 13.576 18.01 15.804C18.0195 15.9634 17.9953 16.123 17.9388 16.2724C17.8824 16.4217 17.7951 16.5575 17.6826 16.6708C17.57 16.784 17.4348 16.8723 17.2859 16.9297C17.1369 16.9871 16.9774 17.0125 16.818 17.004L10.992 17ZM11.01 15.3C11.6275 15.301 12.2314 15.1186 12.7452 14.7761C13.259 14.4335 13.6596 13.9462 13.8961 13.3757C14.1326 12.8053 14.1945 12.1775 14.0739 11.5719C13.9533 10.9663 13.6557 10.4101 13.2187 9.97377C12.7817 9.53747 12.225 9.24071 11.6192 9.12109C11.0134 9.00146 10.3857 9.06437 9.81562 9.30183C9.24558 9.53928 8.75886 9.9406 8.41713 10.4549C8.07539 10.9693 7.89402 11.5735 7.896 12.191C7.89759 13.0157 8.22644 13.806 8.81031 14.3884C9.39418 14.9707 10.1853 15.2975 11.01 15.297V15.3ZM17.135 9.274C17.1372 9.1497 17.0905 9.0295 17.0051 8.9392C16.9197 8.8489 16.8022 8.79569 16.678 8.791C16.551 8.79046 16.429 8.84005 16.3383 8.92899C16.2477 9.01793 16.1958 9.13904 16.194 9.26601C16.195 9.39009 16.2446 9.50883 16.332 9.59685C16.4195 9.68488 16.5379 9.73518 16.662 9.73701C16.7235 9.73767 16.7844 9.72621 16.8415 9.7033C16.8985 9.68039 16.9505 9.64646 16.9944 9.60347C17.0383 9.56047 17.0733 9.50925 17.0975 9.45272C17.1216 9.39619 17.1343 9.33546 17.135 9.274Z" fill="white"/>
<path d="M11.001 9.825C11.4676 9.82341 11.9242 9.96039 12.3129 10.2185C12.7017 10.4767 13.005 10.8444 13.1845 11.2752C13.3641 11.7059 13.4117 12.1802 13.3214 12.638C13.2312 13.0958 13.007 13.5165 12.6774 13.8469C12.3478 14.1772 11.9276 14.4022 11.4699 14.4935C11.0123 14.5847 10.5379 14.5381 10.1068 14.3595C9.67567 14.1809 9.3073 13.8783 9.04831 13.4901C8.78933 13.102 8.65139 12.6456 8.65198 12.179C8.65251 11.5557 8.90001 10.958 9.34027 10.5168C9.78054 10.0756 10.3777 9.82685 11.001 9.825Z" fill="white"/>
</svg>
