<svg width="26" height="25" viewBox="0 0 26 25" fill="none" xmlns="http://www.w3.org/2000/svg">
<path d="M25.774 13.457C25.097 12.1382 24.3242 10.8708 23.4619 9.66502C22.7419 8.72002 21.82 9.85501 21.038 9.73301C20.6691 9.7631 20.2998 9.67873 19.9806 9.49137C19.6613 9.30401 19.4076 9.02279 19.254 8.68601C19.0333 8.32183 18.9566 7.88833 19.0392 7.47056C19.1217 7.05279 19.3574 6.68094 19.7 6.42802C20.969 5.55302 20.829 4.67601 20.051 3.59501C19.6013 2.96473 19.2091 2.29538 18.879 1.59501C18.279 0.331009 17.525 0.195016 16.328 0.915016C12.054 3.48302 7.72796 5.96301 3.43296 8.49601C-0.759044 10.969 -0.57801 9.94403 2.06699 14.649C2.09599 14.7 2.13296 14.749 2.16697 14.797C2.58997 15.446 3.06698 15.859 3.93698 15.521C4.36934 15.3022 4.86899 15.2568 5.33371 15.3941C5.79844 15.5315 6.19311 15.8413 6.43698 16.26C6.58106 16.4719 6.68137 16.7105 6.73203 16.9617C6.78269 17.2129 6.7827 17.4717 6.73203 17.7229C6.68136 17.9741 6.581 18.2126 6.43692 18.4246C6.29285 18.6365 6.10794 18.8175 5.89298 18.957C5.74441 19.0611 5.62016 19.1962 5.52884 19.353C5.43752 19.5098 5.38129 19.6845 5.36399 19.8651C5.34669 20.0457 5.36878 20.2279 5.42868 20.3991C5.48859 20.5704 5.58487 20.7266 5.71097 20.857C6.66197 22.075 6.81097 23.931 8.55497 24.499C8.77997 24.572 9.12999 24.386 9.37699 24.242C14.607 21.192 19.8307 18.1317 25.048 15.061C25.609 14.721 26.193 14.225 25.774 13.457ZM22.326 14.243C18.286 16.6217 14.2393 18.9884 10.186 21.343C9.68601 21.63 9.10596 22.343 8.50296 21.501C8.23974 21.2244 8.06937 20.8726 8.0156 20.4945C7.96182 20.1165 8.02733 19.7311 8.20298 19.392C9.73898 16.181 8.215 13.579 4.642 13.273C4.25725 13.2708 3.88356 13.1438 3.57706 12.9112C3.27056 12.6786 3.04774 12.3529 2.94199 11.983C2.59999 11.057 3.44199 10.908 3.96299 10.602C7.94899 8.24869 11.9406 5.90502 15.938 3.57102C16.238 3.39302 16.553 3.22303 16.776 3.09803C17.688 3.09803 18.2679 4.42701 17.8499 5.29801C15.9589 9.23601 17.218 11.398 21.696 11.757C22.637 11.833 22.885 12.447 23.142 13.088C23.427 13.808 22.759 13.992 22.326 14.247V14.243Z" fill="#050505"/>
<path d="M12.52 16.068C12.569 16.79 12.38 17.144 11.953 17.326C11.763 17.424 11.5433 17.4475 11.3369 17.392C11.1305 17.3365 10.9522 17.206 10.837 17.026C9.74969 15.256 8.69001 13.469 7.65801 11.665C7.56186 11.4743 7.54057 11.2545 7.59831 11.0489C7.65605 10.8433 7.78866 10.6667 7.97002 10.554C8.33402 10.263 8.80297 10.163 9.10197 10.525C10.3667 12.2923 11.5088 14.1443 12.52 16.068Z" fill="#D20000"/>
</svg>
