<svg width="26" height="26" viewBox="0 0 26 26" fill="none" xmlns="http://www.w3.org/2000/svg">
<path d="M22.172 7.88297C19.304 7.68297 17.325 6.66797 16.518 3.78297C16.3455 3.29824 16.09 2.84721 15.763 2.44999C15.4535 1.99061 15.0333 1.61653 14.5411 1.36225C14.049 1.10797 13.5008 0.981659 12.947 0.994972C12.0899 1.01746 11.2655 1.32919 10.6079 1.87946C9.95035 2.42974 9.49824 3.18622 9.32502 4.02598C9.05155 5.16423 8.38282 6.16842 7.43799 6.8596C6.49317 7.55077 5.33364 7.884 4.16602 7.79996C2.47302 7.82996 0.909983 8.32198 0.250983 10.091C-0.481017 12.057 0.468977 13.54 1.96998 14.671C2.97285 15.2846 3.722 16.2381 4.081 17.3577C4.44 18.4773 4.38498 19.6885 3.92597 20.771C3.36697 22.419 3.41299 24.165 5.09199 25.325C5.76331 25.7997 6.57532 26.0337 7.39631 25.989C8.21729 25.9444 8.99912 25.6237 9.615 25.079C11.946 23.302 14.087 23.479 16.394 25.079C17.0146 25.6151 17.7963 25.9288 18.6154 25.9706C19.4344 26.0125 20.244 25.78 20.916 25.31C21.5799 24.8226 22.0542 24.12 22.2581 23.3221C22.4619 22.5241 22.3828 21.6801 22.034 20.934C21.043 18.05 21.983 16.026 24.285 14.324C24.688 14.0647 25.0346 13.7267 25.3038 13.3303C25.5731 12.9339 25.7595 12.4872 25.852 12.017C26.223 9.71398 25.013 8.08297 22.172 7.88297ZM22.312 13C22.087 13.2908 21.8239 13.5501 21.53 13.771C19.059 15.371 18.599 17.559 19.523 20.223C19.712 20.8567 19.8156 21.5129 19.831 22.174C19.901 23.259 19.341 23.702 18.331 23.332C17.1343 23.0259 15.9968 22.5231 14.965 21.844C13.414 20.544 12.121 20.867 10.652 21.822C9.78589 22.3724 8.87579 22.8504 7.93098 23.251C6.75798 23.761 6.09198 23.365 6.11298 21.515C8.12598 17.781 6.37498 14.809 2.97498 12.262C2.09498 11.603 2.32299 10.683 3.51899 10.317C3.72779 10.2456 3.94637 10.2068 4.167 10.202C8.067 10.264 10.494 8.49197 11.719 4.70197C12.288 2.94397 13.356 3.02797 14.278 4.61497C14.3982 4.79989 14.4939 4.99956 14.563 5.20899C15.493 8.64399 17.787 10.174 21.284 10.149C22.045 10.144 23.038 10.074 23.384 11.007C23.733 11.968 22.826 12.423 22.312 13.005V13Z" fill="#050505"/>
<path d="M12.894 18.885C12.2554 18.8988 11.6236 18.7524 11.0562 18.4591C10.4888 18.1658 10.004 17.7349 9.64602 17.206C9.53265 17.0833 9.44489 16.9393 9.3879 16.7823C9.33091 16.6253 9.30582 16.4586 9.31411 16.2918C9.3224 16.125 9.3639 15.9615 9.43618 15.8109C9.50845 15.6604 9.61004 15.5258 9.73501 15.415C9.8436 15.3131 9.9721 15.2348 10.1124 15.1849C10.2527 15.135 10.4017 15.1146 10.5503 15.125C10.6988 15.1355 10.8435 15.1765 10.9755 15.2455C11.1074 15.3144 11.2237 15.4099 11.317 15.526C12.488 16.716 13.575 16.655 14.717 15.482C14.8125 15.3677 14.932 15.2758 15.067 15.2127C15.2019 15.1496 15.349 15.1169 15.498 15.1169C15.647 15.1169 15.7941 15.1496 15.929 15.2127C16.064 15.2758 16.1835 15.3677 16.279 15.482C16.4926 15.6906 16.6218 15.9707 16.6419 16.2686C16.662 16.5666 16.5717 16.8615 16.388 17.097C16.014 17.6757 15.4941 18.1456 14.8808 18.4595C14.2674 18.7734 13.5821 18.9201 12.894 18.885Z" fill="#CE0000"/>
</svg>
