<svg width="84" height="63" viewBox="0 0 84 63" fill="none" xmlns="http://www.w3.org/2000/svg">
<path d="M60.394 0.867996H67.011C69.8753 4.0607 72.0551 7.80637 73.416 11.874C74.7984 15.9507 75.3121 20.2718 74.924 24.559C74.5368 28.7128 73.3299 32.7486 71.373 36.433C69.4253 40.1286 66.7727 43.4069 63.565 46.083C60.2034 48.8985 56.3177 51.0206 52.132 52.327C48.7803 53.385 45.2867 53.9246 41.772 53.927C39.162 53.927 36.5606 53.6273 34.019 53.034C27.3722 51.4973 21.3662 47.9355 16.83 42.84C13.9389 39.6115 11.7392 35.8255 10.366 31.715C9.023 27.7234 8.50504 23.5006 8.84351 19.3029C9.18198 15.1051 10.3698 11.0198 12.335 7.29499C13.5265 4.9791 15.0011 2.82022 16.725 0.867996H23.27C20.4631 3.21338 18.1428 6.08577 16.44 9.323C14.7394 12.5254 13.712 16.0418 13.4208 19.656C13.1297 23.2702 13.581 26.9057 14.747 30.339C15.9161 33.835 17.7704 37.063 20.2013 39.8342C22.6322 42.6054 25.5911 44.8643 28.905 46.479C32.9127 48.4431 37.3168 49.4638 41.78 49.463C44.8094 49.4619 47.8208 48.9978 50.71 48.087C54.234 47.0076 57.5106 45.2437 60.352 42.8963C63.1934 40.5489 65.544 37.664 67.269 34.407C68.9717 31.1864 69.9974 27.6515 70.2829 24.0197C70.5684 20.3879 70.1076 16.7361 68.929 13.289C67.2989 8.43377 64.3432 4.13133 60.396 0.867996H60.394ZM71.45 0.867996H77.019C78.7231 3.55434 80.0961 6.43694 81.108 9.453C82.8332 14.5385 83.4803 19.9276 83.008 25.277C82.5498 30.4317 81.0484 35.4395 78.595 39.996C77.4065 42.2934 75.9944 44.4679 74.379 46.488C72.7421 48.5328 70.9087 50.4121 68.905 52.099C64.7228 55.6134 59.8827 58.2598 54.667 59.884C50.5168 61.1955 46.1905 61.8646 41.838 61.868C38.5782 61.8678 35.3296 61.4876 32.158 60.735C29.0344 59.993 26.0078 58.8903 23.139 57.449C18.3973 55.1638 14.1504 51.9701 10.639 48.049C7.02574 44.0235 4.27764 39.2989 2.56497 34.168C0.854225 29.1063 0.21669 23.7437 0.692978 18.422C1.15615 13.2462 2.64689 8.21474 5.07797 3.622C5.56997 2.687 6.10697 1.759 6.67797 0.861996H12.278C11.1236 2.4045 10.0997 4.04049 9.21697 5.75299C7.01382 9.86565 5.67545 14.3856 5.28421 19.0348C4.89297 23.6839 5.45712 28.364 6.94197 32.787C8.46347 37.2757 10.8639 41.4163 14.0032 44.9671C17.1424 48.5179 20.9576 51.4078 25.226 53.468C30.3681 55.9918 36.0199 57.3047 41.748 57.306C45.6358 57.3039 49.5005 56.7074 53.208 55.537C57.7361 54.1516 61.9466 51.8868 65.5983 48.872C69.25 45.8573 72.2712 42.1519 74.489 37.968C77.5802 32.14 78.9369 25.5483 78.3983 18.9733C77.8597 12.3983 75.4484 6.11523 71.45 0.867996ZM36.927 2.076L38.458 6.62799C39.906 6.33304 41.3802 6.18628 42.858 6.18999C43.463 6.18999 44.088 6.21299 44.713 6.25999C46.8128 6.43719 48.878 6.90395 50.85 7.647L49.212 12.626C47.6759 12.0087 46.0666 11.5923 44.424 11.387C43.6622 11.2283 42.8861 11.1493 42.108 11.151C41.337 11.1528 40.5676 11.2197 39.808 11.351L42.759 20.151C43.459 20.103 44.167 20.079 44.851 20.079C45.7779 20.0766 46.7042 20.124 47.626 20.221C48.907 20.3125 50.1645 20.6125 51.349 21.109C52.3641 21.6036 53.2754 22.2875 54.034 23.124C54.8406 24.0634 55.4488 25.1564 55.822 26.337C56.2268 27.4739 56.351 28.6918 56.184 29.887C56.1028 31.0222 55.7398 32.1193 55.128 33.079C54.5235 34.1959 53.6789 35.1648 52.655 35.916C51.5243 36.7637 50.2883 37.4608 48.978 37.99L49.846 40.577L45.786 41.854L44.886 39.163C43.5667 39.4082 42.2278 39.5321 40.886 39.533C40.525 39.533 40.16 39.523 39.803 39.505C38.1646 39.3404 36.5478 39.0053 34.979 38.505L36.12 33.456C37.9148 34.1115 39.8092 34.4525 41.72 34.464C42.2813 34.4641 42.8422 34.4327 43.4 34.37L40.553 25.881C39.891 25.911 39.253 25.927 38.653 25.927C36.2742 26.0344 33.8991 25.6451 31.679 24.784C30.6587 24.2743 29.7519 23.5637 29.013 22.6948C28.2741 21.826 27.7183 20.8169 27.379 19.728C26.9511 18.5619 26.8138 17.3091 26.979 16.078C27.0815 14.8931 27.4684 13.7504 28.107 12.747C28.7691 11.6893 29.6195 10.762 30.616 10.011C31.7257 9.06283 32.9919 8.315 34.358 7.80099L32.865 3.352L36.925 2.075L36.927 2.076ZM38.738 20.498L35.995 12.321C34.7699 12.7486 33.7169 13.5628 32.995 14.641C32.7267 15.0799 32.56 15.5731 32.5068 16.0848C32.4537 16.5964 32.5156 17.1134 32.688 17.598C32.8648 18.0849 33.0998 18.5486 33.388 18.979C33.7354 19.314 34.1138 19.6153 34.518 19.879L34.554 19.891C35.1296 20.0956 35.7232 20.2456 36.327 20.339L36.827 20.374L36.932 20.382C37.432 20.419 38.064 20.465 38.743 20.495L38.738 20.498ZM47.238 33.498C48.4518 33.1164 49.4835 32.3031 50.138 31.212C50.3909 30.7867 50.5522 30.3132 50.6115 29.8218C50.6707 29.3305 50.6266 28.8323 50.482 28.359C50.1893 27.4248 49.5435 26.6419 48.682 26.177C47.6275 25.7124 46.4731 25.5205 45.325 25.619C45.092 25.619 44.848 25.619 44.598 25.629L47.237 33.497L47.238 33.498Z" fill="#F6F6F6" stroke="black" stroke-miterlimit="10"/>
</svg>
