<svg width="13" height="12" viewBox="0 0 13 12" fill="none" xmlns="http://www.w3.org/2000/svg">
<path d="M10.7811 3.42297C10.1957 3.46424 9.61435 3.29818 9.13899 2.95392C8.66364 2.60965 8.32451 2.10912 8.18111 1.53998C8.10183 1.31739 7.98443 1.11029 7.83412 0.927976C7.69207 0.716978 7.49914 0.545184 7.27315 0.428434C7.04716 0.311683 6.79544 0.253741 6.54115 0.259976C6.14757 0.270366 5.76903 0.413543 5.46712 0.666257C5.16521 0.918971 4.95764 1.26637 4.87813 1.65197C4.75253 2.17465 4.44547 2.63574 4.01161 2.95312C3.57776 3.2705 3.04528 3.42355 2.50911 3.38498C2.11637 3.33068 1.71709 3.41695 1.38179 3.62854C1.0465 3.84013 0.79679 4.16341 0.676775 4.54129C0.55676 4.91916 0.574149 5.32729 0.725908 5.69357C0.877668 6.05985 1.15402 6.3607 1.50612 6.54297C1.96667 6.82448 2.31086 7.262 2.47603 7.77588C2.64121 8.28975 2.61642 8.84585 2.40615 9.34298C2.23783 9.69075 2.19519 10.0861 2.28554 10.4617C2.37589 10.8374 2.59364 11.1701 2.90169 11.4033C3.20974 11.6365 3.58905 11.7557 3.97512 11.7407C4.36118 11.7257 4.7301 11.5774 5.01912 11.321C5.45097 10.946 6.0037 10.7395 6.57564 10.7395C7.14758 10.7395 7.70031 10.946 8.13216 11.321C8.41723 11.5672 8.77623 11.7113 9.15242 11.7305C9.52861 11.7497 9.90046 11.6429 10.2091 11.427C10.5143 11.2033 10.7323 10.8806 10.8261 10.514C10.9198 10.1474 10.8834 9.75972 10.7232 9.41699C10.4988 8.87166 10.48 8.26343 10.6701 7.70526C10.8603 7.14709 11.2465 6.67691 11.7572 6.38199C11.9421 6.2629 12.101 6.10774 12.2246 5.92578C12.3481 5.74381 12.4337 5.53877 12.4762 5.32296C12.6412 4.26196 12.0861 3.51397 10.7811 3.42297ZM10.8451 5.77298C10.7418 5.90648 10.6211 6.02554 10.4862 6.12698C9.98528 6.41176 9.61134 6.87629 9.44014 7.42645C9.26895 7.97661 9.31324 8.57126 9.5641 9.08996C9.65147 9.38226 9.69926 9.68499 9.70613 9.98999C9.73813 10.49 9.48115 10.69 9.01515 10.522C8.46547 10.3812 7.94299 10.1501 7.46913 9.83798C7.20078 9.58733 6.84781 9.44707 6.48061 9.44522C6.11341 9.44336 5.75898 9.58004 5.48812 9.82797C5.09026 10.0807 4.67216 10.3002 4.23812 10.484C3.69912 10.718 3.39415 10.536 3.40315 9.68399C4.32715 7.96899 3.52311 6.60396 1.96211 5.43496C1.56211 5.13496 1.66211 4.70999 2.21211 4.54199C2.30876 4.50887 2.41002 4.49098 2.51216 4.48898C3.29798 4.56025 4.08288 4.34355 4.72084 3.87924C5.35881 3.41493 5.80633 2.73463 5.98012 1.96496C6.24112 1.15796 6.73211 1.19599 7.15511 1.92499C7.21038 2.00995 7.25445 2.10169 7.28615 2.19796C7.42529 2.89271 7.81882 3.51046 8.38967 3.93017C8.96051 4.34989 9.66752 4.54133 10.3721 4.46698C10.7211 4.46698 11.1781 4.43299 11.3371 4.86099C11.4961 5.28899 11.0821 5.50598 10.8451 5.77298Z" fill="black"/>
<path d="M6.52 8.47297C6.22668 8.47941 5.93641 8.41222 5.67576 8.27753C5.41512 8.14285 5.19242 7.94495 5.028 7.70197C4.97582 7.64566 4.9354 7.57948 4.90916 7.50733C4.88293 7.43518 4.87141 7.35851 4.87523 7.28184C4.87905 7.20516 4.89816 7.13004 4.93144 7.06086C4.96471 6.99168 5.0115 6.92983 5.06901 6.87897C5.11912 6.83277 5.1781 6.79729 5.24241 6.77473C5.30673 6.75216 5.37498 6.743 5.44298 6.74778C5.51097 6.75256 5.57727 6.77116 5.6378 6.8025C5.69833 6.83383 5.75181 6.87721 5.79497 6.92997C5.88442 7.0545 6.00264 7.15561 6.13951 7.22471C6.27638 7.29381 6.42791 7.32887 6.58122 7.32691C6.73453 7.32495 6.88507 7.28603 7.02012 7.21345C7.15518 7.14086 7.27074 7.03676 7.35698 6.90998C7.40081 6.85748 7.45567 6.81524 7.51762 6.78626C7.57957 6.75728 7.64711 6.74226 7.7155 6.74226C7.78389 6.74226 7.85143 6.75728 7.91337 6.78626C7.97532 6.81524 8.03019 6.85748 8.07402 6.90998C8.17183 7.00583 8.23094 7.1343 8.24016 7.27094C8.24938 7.40758 8.20806 7.54285 8.12401 7.65098C7.95249 7.91689 7.7139 8.13289 7.43229 8.2772C7.15069 8.42151 6.83602 8.48903 6.52 8.47297Z" fill="black"/>
</svg>
